<?xml version="1.0" encoding="UTF-8"?>
<!DOCTYPE svg PUBLIC "-//W3C//DTD SVG 1.1//EN" "http://www.w3.org/Graphics/SVG/1.1/DTD/svg11.dtd">
<svg xmlns="http://www.w3.org/2000/svg" version="1.1" width="512px" height="512px" style="shape-rendering:geometricPrecision; text-rendering:geometricPrecision; image-rendering:optimizeQuality; fill-rule:evenodd; clip-rule:evenodd" xmlns:xlink="http://www.w3.org/1999/xlink">
<g><path style="opacity:1" fill="#4b5b74" d="M 448.5,230.5 C 425.301,243.596 402.301,256.929 379.5,270.5C 273.527,209.178 167.527,147.845 61.5,86.5C 84.6859,72.9857 107.853,59.319 131,45.5C 236.814,107.319 342.648,168.986 448.5,230.5 Z"/></g>
<g><path style="opacity:0.999" fill="#1d2943" d="M 61.5,86.5 C 167.527,147.845 273.527,209.178 379.5,270.5C 379.173,275.214 379.507,279.88 380.5,284.5C 389.167,279.5 397.833,274.5 406.5,269.5C 407.827,287.329 407.827,304.995 406.5,322.5C 301.115,260.47 195.448,198.803 89.5,137.5C 89.6663,130.825 89.4996,124.158 89,117.5C 80,112.167 71,106.833 62,101.5C 61.5007,96.5111 61.3341,91.5111 61.5,86.5 Z"/></g>
<g><path style="opacity:1" fill="#4b5b74" d="M 89.5,137.5 C 195.448,198.803 301.115,260.47 406.5,322.5C 397.299,327.596 388.299,332.93 379.5,338.5C 273.306,277.575 167.639,215.909 62.5,153.5C 71.7006,148.404 80.7006,143.07 89.5,137.5 Z"/></g>
<g><path style="opacity:0.998" fill="#1d2943" d="M 62.5,153.5 C 167.639,215.909 273.306,277.575 379.5,338.5C 379.5,343.167 379.5,347.833 379.5,352.5C 277.391,293.609 175.391,234.443 73.5,175C 71.3496,173.589 69.0163,172.755 66.5,172.5C 65.2347,171.521 63.9014,170.521 62.5,169.5C 61.1853,164.014 61.1853,158.68 62.5,153.5 Z"/></g>
<g><path style="opacity:1" fill="#4b5b74" d="M 66.5,172.5 C 69.0163,172.755 71.3496,173.589 73.5,175C 175.391,234.443 277.391,293.609 379.5,352.5C 387.527,348.154 395.527,343.821 403.5,339.5C 405.819,339.992 407.819,340.992 409.5,342.5C 386.861,355.488 364.194,368.488 341.5,381.5C 340.448,381.649 339.448,381.483 338.5,381C 269.772,340.638 200.772,300.805 131.5,261.5C 134.755,257.862 138.755,255.195 143.5,253.5C 132.881,249.936 126.714,242.603 125,231.5C 123.753,239.886 119.586,246.219 112.5,250.5C 83.0343,232.596 53.3676,214.93 23.5,197.5C 37.6341,188.929 51.9674,180.596 66.5,172.5 Z"/></g>
<g><path style="opacity:0.999" fill="#1d2943" d="M 23.5,197.5 C 53.3676,214.93 83.0343,232.596 112.5,250.5C 110.118,251.572 107.784,252.738 105.5,254C 115.747,257.247 122.247,264.081 125,274.5C 126.121,269.592 128.287,265.259 131.5,261.5C 200.772,300.805 269.772,340.638 338.5,381C 339.448,381.483 340.448,381.649 341.5,381.5C 340.389,386.416 340.222,391.416 341,396.5C 349.914,391.627 358.748,386.627 367.5,381.5C 368.298,383.078 368.798,384.744 369,386.5C 369.827,402.695 369.327,418.695 367.5,434.5C 367.063,432.926 366.063,431.759 364.5,431C 260.139,370.488 155.806,309.988 51.5,249.5C 51.6663,242.825 51.4996,236.158 51,229.5C 42,224.167 33,218.833 24,213.5C 23.5006,208.177 23.334,202.844 23.5,197.5 Z"/></g>
<g><path style="opacity:1" fill="#121e34" d="M 448.5,230.5 C 448.828,235.875 448.495,241.208 447.5,246.5C 439.437,251.193 431.437,255.86 423.5,260.5C 422.5,260.5 421.5,260.5 420.5,260.5C 420.333,278.503 420.5,296.503 421,314.5C 430,309.167 439,303.833 448,298.5C 448.829,303.533 448.662,308.533 447.5,313.5C 435.969,320.431 424.302,327.098 412.5,333.5C 409.477,335.533 406.477,337.533 403.5,339.5C 395.527,343.821 387.527,348.154 379.5,352.5C 379.5,347.833 379.5,343.167 379.5,338.5C 388.299,332.93 397.299,327.596 406.5,322.5C 407.827,304.995 407.827,287.329 406.5,269.5C 397.833,274.5 389.167,279.5 380.5,284.5C 379.507,279.88 379.173,275.214 379.5,270.5C 402.301,256.929 425.301,243.596 448.5,230.5 Z"/></g>
<g><path style="opacity:1" fill="#f1f2f8" d="M 131.5,261.5 C 128.287,265.259 126.121,269.592 125,274.5C 122.247,264.081 115.747,257.247 105.5,254C 107.784,252.738 110.118,251.572 112.5,250.5C 119.586,246.219 123.753,239.886 125,231.5C 126.714,242.603 132.881,249.936 143.5,253.5C 138.755,255.195 134.755,257.862 131.5,261.5 Z"/></g>
<g><path style="opacity:1" fill="#4b5b74" d="M 51.5,249.5 C 155.806,309.988 260.139,370.488 364.5,431C 366.063,431.759 367.063,432.926 367.5,434.5C 358.833,439.5 350.167,444.5 341.5,449.5C 236.058,388.943 130.725,328.109 25.5,267C 24.7476,266.329 24.4142,265.496 24.5,264.5C 33.366,259.234 42.366,254.234 51.5,249.5 Z"/></g>
<g><path style="opacity:1" fill="#4a5a73" d="M 423.5,260.5 C 445.168,272.332 466.502,284.665 487.5,297.5C 464.001,310.079 441.001,323.412 418.5,337.5C 416.205,336.525 414.205,335.192 412.5,333.5C 424.302,327.098 435.969,320.431 447.5,313.5C 448.662,308.533 448.829,303.533 448,298.5C 439,303.833 430,309.167 421,314.5C 420.5,296.503 420.333,278.503 420.5,260.5C 421.5,260.5 422.5,260.5 423.5,260.5 Z"/></g>
<g><path style="opacity:0.981" fill="#1d2943" d="M 24.5,264.5 C 24.4142,265.496 24.7476,266.329 25.5,267C 130.725,328.109 236.058,388.943 341.5,449.5C 340.555,454.405 340.221,459.405 340.5,464.5C 234.894,404.029 129.561,343.029 24.5,281.5C 23.1843,275.68 23.1843,270.013 24.5,264.5 Z"/></g>
<g><path style="opacity:1" fill="#111d33" d="M 487.5,297.5 C 487.666,302.511 487.499,307.511 487,312.5C 478.261,318.232 469.261,323.565 460,328.5C 459.5,335.158 459.334,341.825 459.5,348.5C 459.168,359.187 459.501,369.854 460.5,380.5C 469.393,375.222 478.393,370.222 487.5,365.5C 487.666,370.511 487.499,375.511 487,380.5C 464.279,394.06 441.446,407.394 418.5,420.5C 418.5,415.167 418.5,409.833 418.5,404.5C 427.634,399.766 436.634,394.766 445.5,389.5C 446.827,371.995 446.827,354.329 445.5,336.5C 436.423,341.12 427.59,346.12 419,351.5C 418.501,346.845 418.334,342.179 418.5,337.5C 441.001,323.412 464.001,310.079 487.5,297.5 Z"/></g>
<g><path style="opacity:1" fill="#1d2943" d="M 412.5,333.5 C 414.205,335.192 416.205,336.525 418.5,337.5C 418.334,342.179 418.501,346.845 419,351.5C 427.59,346.12 436.423,341.12 445.5,336.5C 446.827,354.329 446.827,371.995 445.5,389.5C 430.784,380.137 415.784,371.137 400.5,362.5C 403.102,360.858 405.769,359.192 408.5,357.5C 409.494,352.544 409.827,347.544 409.5,342.5C 407.819,340.992 405.819,339.992 403.5,339.5C 406.477,337.533 409.477,335.533 412.5,333.5 Z"/></g>
<g><path style="opacity:1" fill="#111d33" d="M 409.5,342.5 C 409.827,347.544 409.494,352.544 408.5,357.5C 405.769,359.192 403.102,360.858 400.5,362.5C 394.554,365.809 388.554,369.142 382.5,372.5C 381.509,376.445 381.176,380.445 381.5,384.5C 381.5,387.5 381.5,390.5 381.5,393.5C 381.168,404.187 381.501,414.854 382.5,425.5C 390.85,420.805 399.184,416.139 407.5,411.5C 408.5,411.5 409.5,411.5 410.5,411.5C 410.5,413.167 410.5,414.833 410.5,416.5C 411.15,420.607 410.15,424.107 407.5,427C 385.065,440.195 362.732,452.695 340.5,464.5C 340.221,459.405 340.555,454.405 341.5,449.5C 350.167,444.5 358.833,439.5 367.5,434.5C 369.327,418.695 369.827,402.695 369,386.5C 368.798,384.744 368.298,383.078 367.5,381.5C 358.748,386.627 349.914,391.627 341,396.5C 340.222,391.416 340.389,386.416 341.5,381.5C 364.194,368.488 386.861,355.488 409.5,342.5 Z"/></g>
<g><path style="opacity:1" fill="#4a5a73" d="M 459.5,348.5 C 469.202,353.679 478.535,359.345 487.5,365.5C 478.393,370.222 469.393,375.222 460.5,380.5C 459.501,369.854 459.168,359.187 459.5,348.5 Z"/></g>
<g><path style="opacity:1" fill="#4b5b74" d="M 400.5,362.5 C 415.784,371.137 430.784,380.137 445.5,389.5C 436.634,394.766 427.634,399.766 418.5,404.5C 406.167,397.833 393.833,391.167 381.5,384.5C 381.176,380.445 381.509,376.445 382.5,372.5C 388.554,369.142 394.554,365.809 400.5,362.5 Z"/></g>
<g><path style="opacity:0.992" fill="#1d2943" d="M 381.5,384.5 C 393.833,391.167 406.167,397.833 418.5,404.5C 418.5,409.833 418.5,415.167 418.5,420.5C 415.807,419.153 413.14,417.82 410.5,416.5C 410.5,414.833 410.5,413.167 410.5,411.5C 409.5,411.5 408.5,411.5 407.5,411.5C 407.918,410.778 408.584,410.278 409.5,410C 400.304,404.236 390.97,398.736 381.5,393.5C 381.5,390.5 381.5,387.5 381.5,384.5 Z"/></g>
<g><path style="opacity:1" fill="#4a5a73" d="M 381.5,393.5 C 390.97,398.736 400.304,404.236 409.5,410C 408.584,410.278 407.918,410.778 407.5,411.5C 399.184,416.139 390.85,420.805 382.5,425.5C 381.501,414.854 381.168,404.187 381.5,393.5 Z"/></g>
</svg>
